PathFileType	4	(X/Y/Z)	9_coords_data.trc
DataRate	CameraRate	NumFrames	NumMarkers	Units	OrigDataRate	OrigDataStartFrame	OrigNumFrames
30.0	30.0	6	21	m	30.0	10	56
Frame#	Time	THUMB_TIP	THUMB_IP	THUMB_MCP	THUMB_CMC	INDEX_TIP	INDEX_DIP	INDEX_PIP	INDEX_MCP	MIDDLE_TIP	MIDDLE_DIP	MIDDLE_PIP	MIDDLE_MCP	RING_TIP	RING_DIP	RING_PIP	RING_MCP	PINKY_TIP	PINKY_DIP	PINKY_PIP	PINKY_MCP	WRIST
X1	Y1	Z1	X2	Y2	Z2	X3	Y3	Z3	X4	Y4	Z4	X5	Y5	Z5	X6	Y6	Z6	X7	Y7	Z7	X8	Y8	Z8	X9	Y9	Z9	X10	Y10	Z10	X11	Y11	Z11	X12	Y12	Z12	X13	Y13	Z13	X14	Y14	Z14	X15	Y15	Z15	X16	Y16	Z16	X17	Y17	Z17	X18	Y18	Z18	X19	Y19	Z19	X20	Y20	Z20	X21	Y21	Z21
8	0.2999999999999987	0.5422228358694635	-0.024891464293164245	-0.13541243203400638	0.519430331192254	-0.026563981989303542	-0.1330240402957268	0.4930143307241397	-0.021877020766559174	-0.1172428073348622	0.4792414021963769	-0.025367800436610133	-0.07495792945796276	0.5449201846664019	0.07877105270620166	-0.15928632449664615	0.5371705293993989	0.06526874861602827	-0.15003264266187905	0.5250531194789895	0.04885698163859087	-0.13534141689616908	0.5056880115649384	0.02050290710161129	-0.11014865709045168	0.530426505298616	-0.02429561330816621	-0.11916126423240009	0.5430066852291237	-0.012024108462840744	-0.12353724889270262	0.5499768600506048	0.015894322337916655	-0.11891259381569241	0.5160789344689896	0.024212488904368	-0.09102197411594298	0.5373982081649744	-0.025564755636651948	-0.11061754829709819	0.5515804832526814	-0.014637662392927075	-0.10850527308312818	0.5605121459745671	0.0057630858834427645	-0.09736010149240437	0.528758717929965	0.015627214420017244	-0.0743570667006595	0.6028976116210447	0.0191949798026948	-0.05732954111756494	0.5869277705876248	0.013033898820760004	-0.057257025592744815	0.5667847408654777	0.007112552630089142	-0.05716740470832099	0.5328756252990317	-0.003961580961237221	-0.06249834249663455	0.4622830810018609	-0.023011742144276925	-0.051989820119430985
9	0.33333333333333187	0.5421185532933203	-0.024999423580396307	-0.13550339691644414	0.519329182605526	-0.026640066974018106	-0.13306354591499497	0.49293691797427186	-0.021865952162162472	-0.11726873045557679	0.4792365556782928	-0.02536945659543466	-0.07496133713425568	0.545170092060681	0.07854500416903631	-0.15933486843465666	0.5373707513730743	0.06507596062759491	-0.15007446072670994	0.5251910460382436	0.04872240033842179	-0.13536984659287138	0.5057122010506571	0.020457538687638332	-0.11016452398411192	0.530428043740688	-0.02446052765125961	-0.11921552909589145	0.5430119411776893	-0.012182044622651933	-0.12356114525602596	0.5500046519215903	0.01573185583012149	-0.11894316864664395	0.5161307834223993	0.024131919678909042	-0.09104786651105468	0.5373961393655878	-0.025731643578080443	-0.11068575112412465	0.5515786375658007	-0.014812161796446177	-0.10853594591864257	0.5605212510674376	0.005582984506867117	-0.09738930292504167	0.5287957162276797	0.015544517858121054	-0.07438975670292725	0.6030433798736858	0.018749340673347215	-0.05739239297691251	0.5870421619571808	0.012670302096207897	-0.05731292495716084	0.5668675555420545	0.006857673874638426	-0.0572098320254924	0.5328903145578728	-0.004021559930577401	-0.06250821082605984	0.462283081001861	-0.023011742144276925	-0.051989820119430985
10	0.3666666666666651	0.5420449973546411	-0.02514144925577677	-0.13560856129713028	0.5192569185225101	-0.026733847939038435	-0.1331250698890249	0.49288741577138107	-0.02194251666044067	-0.11729748418441	0.4792266493383851	-0.025356485436764054	-0.07496997211888196	0.5453973846954955	0.07829510788733973	-0.15942571715208337	0.5375474547130168	0.06487117710299095	-0.1501425775125435	0.5253070483346788	0.0485821398478431	-0.1354167651412837	0.505730019460393	0.020401916612010407	-0.11019274776034255	0.5303475125013496	-0.024565849857592137	-0.11924205991630599	0.542993037698611	-0.012348077354255582	-0.12357988512511053	0.5500011167461296	0.015565319230707586	-0.1189822042799124	0.5161563179419564	0.024072655022625455	-0.0910841263420224	0.5373672709113019	-0.025901495550715636	-0.11075058929064507	0.551548621624288	-0.014987017695816895	-0.10856805289685578	0.5605044407582248	0.0054038574825185925	-0.0974241984424149	0.5288133161531977	0.015489862267092591	-0.07443146126838107	0.6031937017403901	0.01829195589725041	-0.05750513472159108	0.5871597454911549	0.012300047811654058	-0.05740877865597904	0.5669536190460406	0.006598531115299289	-0.05727770445852737	0.5328975015804516	-0.004057040963644565	-0.06252395052980902	0.4622830810018609	-0.023011742144276925	-0.051989820119430985
11	0.39999999999999825	0.5419323353546203	-0.02531125809852197	-0.1357324421486834	0.5191464645625185	-0.02685412737921755	-0.1331979507542762	0.4928048849691068	-0.02201753209499735	-0.1173376692126194	0.4791982792479257	-0.02537922431990991	-0.07498853337570671	0.5456119846902768	0.07798439901988596	-0.15959201121192934	0.5377055937089187	0.06461364179999174	-0.15028009234326722	0.5253971996769478	0.04840524365813936	-0.13552200645691526	0.5057053566292238	0.02034526421206939	-0.1102533506780668	0.5302855358657915	-0.024710110381841344	-0.11928110016351862	0.5429426912909021	-0.012505624048084196	-0.12362240525228302	0.5499813285888492	0.015404580375736887	-0.11905210723043874	0.5161659002849754	0.024008532032577357	-0.09114804398666831	0.5373317860733267	-0.026067797827142192	-0.11083189534562204	0.5515329765553386	-0.015180760677488747	-0.1086413221339515	0.5604806316949063	0.005202536041085781	-0.09747706392366623	0.5288275233824818	0.01542880588728568	-0.0744939185080658	0.6033367116659245	0.01784729054581702	-0.057642137531224324	0.5872729967214723	0.011936022329299467	-0.05752394169472502	0.567037587335923	0.006340363745657385	-0.0573541447143614	0.5329073308967865	-0.004104151771971765	-0.06254270347386143	0.4622830810018609	-0.023011742144276925	-0.051989820119430985
12	0.43333333333333146	0.5418580310902822	-0.025499650612420433	-0.13582903267557522	0.5190752898012109	-0.026996534893807822	-0.13323943100671226	0.4927476838891798	-0.022135518351419803	-0.11736342127140986	0.4792012046304246	-0.02538236276377348	-0.0749860581980179	0.5458123769121515	0.07767326666436214	-0.15976464160293347	0.5378471886886863	0.06435923575607416	-0.15042160368489388	0.5254801253343806	0.04823282850129629	-0.13562280082643163	0.5057001503815627	0.020275943209213	-0.11030874841218535	0.5302063371581626	-0.02486600815117712	-0.11934510263210224	0.5428778903321567	-0.01266353203366355	-0.12364990422568894	0.5499532308108733	0.015245621878835491	-0.11913014372333014	0.516173577697715	0.02394587511402857	-0.09121261248938678	0.5372684875074589	-0.026224207411497447	-0.11088942725399392	0.5514794276478372	-0.015353679916826901	-0.10868017119952728	0.5604455242091275	0.005040663307675164	-0.09755093690893785	0.5288319632085663	0.015380022691958928	-0.07456395706411217	0.6034606385627543	0.0174525722884874	-0.05782331013184505	0.5873710465751952	0.011612824983382675	-0.05767370703562552	0.567110942109057	0.006108859231573449	-0.057457959442183515	0.5329101031500284	-0.004135546086994402	-0.06258028559028267	0.4622830810018609	-0.023011742144276925	-0.051989820119430985
13	0.4666666666666647	0.5417314543305085	-0.025651465755783698	-0.13593718840954822	0.5189546271286095	-0.02713079065087809	-0.13328619982609702	0.49265039033644953	-0.0222031083348333	-0.11739201618005474	0.4792044773196035	-0.02541658704041172	-0.07498009594821181	0.5459563686502301	0.07735398290391515	-0.15999024052987604	0.5379436498830872	0.0640956666929019	-0.15060869539021726	0.5255266808117453	0.04805617920275451	-0.1357573131941136	0.5056679501195726	0.02021390932667888	-0.11037868207571933	0.5300908944115563	-0.024974650230621953	-0.11937495389233688	0.5427809373947398	-0.012785767355658395	-0.12366376996969242	0.5499085398709299	0.015123877860909185	-0.11922997511350619	0.5161744770370053	0.023890153757790578	-0.09127799248943141	0.5372273270492187	-0.02636090071778019	-0.11091025731998788	0.5514503760258548	-0.015500762302122606	-0.10872799441167996	0.5604216757116142	0.004894254454081315	-0.09760418874713978	0.5288437449475201	0.015331113238617577	-0.07461229666819746	0.6035815185057152	0.017074562560117523	-0.05799515747081424	0.5874688353111654	0.01129982199849544	-0.05781127784161605	0.5671878217073253	0.005875756817614097	-0.05754290661663758	0.5329204168406325	-0.004180804574151709	-0.06259206374192239	0.4622830810018609	-0.023011742144276925	-0.051989820119430985
